<svg width="31" height="21" viewBox="0 0 31 21" fill="none" xmlns="http://www.w3.org/2000/svg">
<path d="M27.6806 0.409546H3.375C1.81945 0.409546 0.555557 1.67344 0.555557 3.22899V18.1526C0.555557 19.7082 1.81945 20.972 3.375 20.972H27.6806C29.2361 20.972 30.5 19.7082 30.5 18.1526V3.22899C30.5 1.67344 29.2361 0.409546 27.6806 0.409546ZM27.6806 2.11093C27.9236 2.11093 28.1181 2.15955 28.3125 2.30538L16.2083 9.64566C15.7708 9.88871 15.2847 9.88871 14.8472 9.64566L2.74306 2.30538C2.9375 2.20816 3.13195 2.11093 3.375 2.11093H27.6806ZM27.6806 19.222H3.375C2.79167 19.222 2.25695 18.7359 2.25695 18.104V4.00677L13.9236 11.104C14.4097 11.3957 14.9444 11.5415 15.4792 11.5415C16.0139 11.5415 16.5486 11.3957 17.0347 11.104L28.7014 4.00677V18.104C28.7986 18.7359 28.2639 19.222 27.6806 19.222Z" fill="#B3550A"/>
</svg>
