<svg width="32" height="32" viewBox="0 0 32 32" fill="none" xmlns="http://www.w3.org/2000/svg">
<g clip-path="url(#clip0_19_59)">
<path d="M15.5557 1.40955C8.79875 1.40955 3.25708 6.75677 3.25708 13.2707C3.25708 18.472 10.6946 27.0762 13.9029 30.5762C14.3404 31.0623 14.9237 31.3054 15.5557 31.3054C16.1876 31.3054 16.771 31.0623 17.2085 30.5762C20.4168 27.1248 27.8543 18.472 27.8543 13.2707C27.8543 6.70816 22.3126 1.40955 15.5557 1.40955ZM15.9446 29.4095C15.7015 29.6526 15.3612 29.6526 15.1668 29.4095C12.7849 26.8332 4.95847 17.9859 4.95847 13.2707C4.95847 7.63177 9.72236 3.11093 15.5557 3.11093C21.389 3.11093 26.1529 7.68038 26.1529 13.2707C26.1529 17.9859 18.3265 26.7845 15.9446 29.4095Z" fill="#B3550A"/>
<path d="M15.5557 8.40955C12.6876 8.40955 10.3057 10.7429 10.3057 13.6595C10.3057 16.5276 12.639 18.9095 15.5557 18.9095C18.4723 18.9095 20.8057 16.5762 20.8057 13.6595C20.8057 10.7429 18.4237 8.40955 15.5557 8.40955ZM15.5557 17.1595C13.6112 17.1595 12.0071 15.5554 12.0071 13.6109C12.0071 11.6665 13.6112 10.0623 15.5557 10.0623C17.5001 10.0623 19.1043 11.6665 19.1043 13.6109C19.1043 15.5554 17.5001 17.1595 15.5557 17.1595Z" fill="#B3550A"/>
</g>
<defs>
<clipPath id="clip0_19_59">
<rect width="31.1111" height="31.1111" fill="white" transform="translate(0 0.77771)"/>
</clipPath>
</defs>
</svg>
